<?xml version="1.0" standalone="no"?>
<!DOCTYPE svg PUBLIC "-//W3C//DTD SVG 20010904//EN"
    "http://www.w3.org/TR/2001/REC-SVG-20010904/DTD/svg10.dtd">
<svg version="1.0" xmlns="http://www.w3.org/2000/svg"
     width="201.000000pt" height="203.000000pt" viewBox="0 0 201.000000 203.000000"
     preserveAspectRatio="xMidYMid meet">

    <g transform="translate(0.000000,203.000000) scale(0.100000,-0.100000)"
       fill="#002211" stroke="none">
        <path d="M980 1857 l0 -65 56 -7 c304 -38 557 -292 599 -602 l7 -53 65 0 65 0
-7 58 c-45 380 -349 685 -726 728 l-59 7 0 -66z"/>
        <path d="M790 1704 c-298 -78 -494 -345 -477 -650 9 -159 70 -294 183 -408
346 -345 933 -182 1055 292 31 121 31 122 -44 122 l-64 0 -16 -78 c-36 -166
-158 -304 -323 -363 -87 -32 -235 -32 -327 -1 -197 68 -337 264 -337 473 0
234 178 449 408 491 l62 12 0 63 0 63 -32 -1 c-18 0 -58 -7 -88 -15z"/>
        <path d="M980 1656 l0 -63 59 -12 c199 -39 361 -209 396 -413 l6 -38 64 0 c76
0 75 -3 46 112 -60 232 -237 410 -464 463 -107 25 -107 25 -107 -49z"/>
        <path d="M873 1340 c-111 -50 -111 -203 0 -249 23 -10 63 -26 90 -35 38 -14
47 -22 47 -41 0 -36 -33 -50 -81 -36 -21 6 -45 21 -53 33 l-15 21 -45 -27
c-25 -15 -46 -30 -46 -35 0 -4 15 -24 33 -44 34 -38 103 -67 160 -67 41 1 105
30 136 63 27 30 38 98 22 139 -14 36 -70 76 -143 103 -35 12 -67 30 -72 39
-26 40 64 55 96 16 l18 -22 42 24 c23 12 43 29 46 36 6 20 -60 79 -103 91 -56
15 -84 13 -132 -9z"/>
        <path d="M710 326 c158 -159 211 -206 230 -206 19 0 71 46 225 200 182 183
195 198 141 166 -120 -72 -220 -99 -366 -99 -149 -1 -295 43 -400 120 -19 14
57 -67 170 -181z"/>
    </g>
</svg>
